<!-- 
This is a dummy placeholder. In a real project, you would have an actual image file. 
For GitHub deployment, you would need to generate proper PNG/SVG image files.
-->

<svg width="500" height="300" xmlns="http://www.w3.org/2000/svg">
  <rect width="100%" height="100%" fill="#f0f0f0"/>
  <rect x="50" y="50" width="180" height="80" rx="10" fill="white" stroke="#4285f4" stroke-width="2"/>
  <rect x="270" y="50" width="180" height="80" rx="10" fill="white" stroke="#4285f4" stroke-width="2"/>
  <rect x="160" y="180" width="180" height="80" rx="10" fill="white" stroke="#4285f4" stroke-width="2"/>
  <line x1="140" y1="90" x2="270" y2="90" stroke="#4285f4" stroke-width="2"/>
  <line x1="250" y1="90" x2="260" y2="80" stroke="#4285f4" stroke-width="2"/>
  <line x1="250" y1="90" x2="260" y2="100" stroke="#4285f4" stroke-width="2"/>
  <line x1="140" y1="130" x2="140" y2="180" stroke="#4285f4" stroke-width="2"/>
  <line x1="140" y1="170" x2="130" y2="160" stroke="#4285f4" stroke-width="2"/>
  <line x1="140" y1="170" x2="150" y2="160" stroke="#4285f4" stroke-width="2"/>
  <line x1="360" y1="130" x2="360" y2="180" stroke="#4285f4" stroke-width="2"/>
  <line x1="360" y1="170" x2="350" y2="160" stroke="#4285f4" stroke-width="2"/>
  <line x1="360" y1="170" x2="370" y2="160" stroke="#4285f4" stroke-width="2"/>
  <text x="140" y="80" font-family="Arial" font-size="14" fill="#4285f4" text-anchor="middle">Input A</text>
  <text x="140" y="100" font-family="Arial" font-size="14" fill="#4285f4" text-anchor="middle">Value: 6</text>
  <text x="360" y="80" font-family="Arial" font-size="14" fill="#4285f4" text-anchor="middle">Input B</text>
  <text x="360" y="100" font-family="Arial" font-size="14" fill="#4285f4" text-anchor="middle">Value: 3</text>
  <text x="250" y="210" font-family="Arial" font-size="14" fill="#4285f4" text-anchor="middle">RIS Operation</text>
  <text x="250" y="230" font-family="Arial" font-size="14" fill="#4285f4" text-anchor="middle">Result: 2</text>
  <text x="250" y="250" font-family="Arial" font-size="12" fill="#4285f4" text-anchor="middle">Division (a÷b)</text>
</svg>
